<svg width="30" height="30" viewBox="0 0 30 30" fill="none" xmlns="http://www.w3.org/2000/svg">
<path d="M4.98443 26.6568C4.8755 26.5477 4.72433 26.4851 4.57022 26.4851C4.41612 26.4851 4.26494 26.5477 4.15595 26.6568C4.04697 26.7658 3.98427 26.917 3.98427 27.0711C3.98427 27.2252 4.04691 27.3763 4.15595 27.4853C4.26494 27.5943 4.41612 27.657 4.57022 27.657C4.72433 27.657 4.8755 27.5943 4.98443 27.4853C5.09342 27.3763 5.15617 27.2252 5.15617 27.0711C5.15617 26.917 5.09348 26.7658 4.98443 26.6568Z" fill="#FFBB01"/>
<path d="M27.5116 10.7193C27.4026 10.6102 27.252 10.5476 27.0973 10.5476C26.9432 10.5476 26.792 10.6102 26.6831 10.7193C26.5741 10.8283 26.5114 10.9795 26.5114 11.1336C26.5114 11.2877 26.5741 11.4388 26.6831 11.5478C26.792 11.6568 26.9432 11.7195 27.0973 11.7195C27.252 11.7195 27.4026 11.6568 27.5116 11.5478C27.6211 11.4388 27.6838 11.2877 27.6838 11.1336C27.6838 10.9795 27.6211 10.8283 27.5116 10.7193Z" fill="#FFBB01"/>
<path d="M29.8284 0.171625C29.7185 0.0617594 29.5694 0 29.4139 0L14.9999 0.000761738C14.6763 0.000761738 14.414 0.263151 14.414 0.586714V2.26236L8.85979 3.75062C8.54718 3.83441 8.36167 4.15569 8.44546 4.46824L11.3241 15.2112L8.83383 17.7014C8.51689 17.2387 7.98473 16.9343 7.38278 16.9343H1.75781C0.788531 16.9343 1.52588e-05 17.7229 1.52588e-05 18.6921V28.2429C1.52588e-05 29.2122 0.788531 30.0008 1.75781 30.0008H7.38284C8.20628 30.0008 8.89899 29.4314 9.08884 28.666L9.78554 29.2735C10.3234 29.7425 11.0125 30.0008 11.7261 30.0008H29.4141C29.7376 30.0008 30 29.7384 30 29.4149V0.585952C29.9999 0.430558 29.9383 0.281491 29.8284 0.171625ZM7.96867 28.243C7.96867 28.566 7.70582 28.8289 7.38272 28.8289H1.75776C1.43466 28.8289 1.1718 28.5661 1.1718 28.243V18.6922C1.1718 18.3691 1.43466 18.1062 1.75776 18.1062H3.98432V24.8561C3.98432 25.1797 4.2467 25.4421 4.57027 25.4421C4.89383 25.4421 5.15622 25.1797 5.15622 24.8561V18.1062H7.38278C7.70587 18.1062 7.96873 18.3691 7.96873 18.6922V28.243H7.96867ZM9.72905 4.73092L14.414 3.47558V5.64682L14.0213 5.75206C13.8711 5.79231 13.7432 5.89046 13.6655 6.02505C13.5878 6.15965 13.5667 6.31955 13.6069 6.46968C13.8321 7.30999 13.3317 8.17679 12.4913 8.40197C12.3411 8.44228 12.2129 8.54061 12.1353 8.67549C12.0576 8.81032 12.0367 8.97052 12.0773 9.12076L14.3613 17.5783H13.1853L12.5792 15.2073C12.56 15.1318 12.5262 15.0623 12.481 15.0018L9.72905 4.73092ZM14.414 8.33394V13.2783L13.3453 9.32104C13.7917 9.09052 14.157 8.74563 14.414 8.33394ZM22.832 28.8289H11.726C11.2956 28.8289 10.88 28.6731 10.5556 28.3903L9.14058 27.1562V19.0521L11.6987 16.4939L12.1627 18.3092C12.229 18.5686 12.4626 18.75 12.7304 18.75L24.2504 18.7507C24.7028 18.7507 25.0707 19.1187 25.0707 19.571C25.0707 20.0234 24.7028 20.3914 24.2504 20.3914H18.3475C18.024 20.3914 17.7616 20.6538 17.7616 20.9773C17.7616 21.3009 18.024 21.5633 18.3475 21.5633H26.0844C26.5368 21.5633 26.9048 21.9313 26.9048 22.3836C26.9048 22.836 26.5368 23.2039 26.0844 23.2039H18.3475C18.024 23.2039 17.7616 23.4663 17.7616 23.7899C17.7616 24.1135 18.024 24.3759 18.3475 24.3759H24.8307C25.283 24.3759 25.651 24.7438 25.651 25.1962C25.651 25.6485 25.283 26.0165 24.8307 26.0165H18.3475C18.024 26.0165 17.7616 26.2789 17.7616 26.6025C17.7616 26.926 18.024 27.1884 18.3475 27.1884H22.832C23.2844 27.1884 23.6523 27.5564 23.6523 28.0088C23.6523 28.4609 23.2843 28.8289 22.832 28.8289ZM28.8281 28.8289H28.8281H24.6468C24.7604 28.5785 24.8242 28.3009 24.8242 28.0085C24.8242 27.7161 24.7604 27.4386 24.6468 27.1882H24.8307C25.9292 27.1882 26.8229 26.2945 26.8229 25.196C26.8229 24.8756 26.7464 24.5728 26.6114 24.3044C27.4549 24.0727 28.0766 23.2995 28.0766 22.3835C28.0766 21.9391 27.9302 21.5283 27.6833 21.1966V13.7703C27.6833 13.4467 27.4209 13.1843 27.0974 13.1843C26.7738 13.1843 26.5114 13.4467 26.5114 13.7703V20.438C26.3737 20.4078 26.2309 20.3914 26.0843 20.3914H26.0651C26.1787 20.141 26.2425 19.8634 26.2425 19.571C26.2425 18.4725 25.3488 17.5789 24.2504 17.5789H23.3084C24.3086 17.1499 25.011 16.1558 25.011 15.0004C25.011 13.4541 23.7531 12.1961 22.2068 12.1961C20.6606 12.1961 19.4027 13.4541 19.4027 15.0004C19.4027 16.1558 20.1052 17.1499 21.1053 17.5789H17.9023V6.43745C18.949 6.20934 19.775 5.38344 20.003 4.33663H24.4106C24.6387 5.38344 25.4646 6.20934 26.5114 6.43745V8.25917C26.5114 8.58274 26.7738 8.84513 27.0973 8.84513C27.4209 8.84513 27.6833 8.58274 27.6833 8.25917V5.91431C27.6833 5.59075 27.4209 5.32836 27.0973 5.32836C26.2274 5.32836 25.5197 4.62059 25.5197 3.75068C25.5197 3.42712 25.2573 3.16473 24.9338 3.16473H19.4799C19.1564 3.16473 18.894 3.42712 18.894 3.75068C18.894 4.62064 18.1863 5.32836 17.3164 5.32836C16.9928 5.32836 16.7304 5.59075 16.7304 5.91431V17.5788H15.5859V1.17255L28.8281 1.1719V28.8289ZM22.207 16.6327C21.3069 16.6327 20.5747 15.9005 20.5747 15.0004C20.5747 14.1004 21.3069 13.3681 22.207 13.3681C23.107 13.3681 23.8393 14.1004 23.8393 15.0004C23.8393 15.9004 23.107 16.6327 22.207 16.6327Z" fill="#FFBB01"/>
</svg>
