<svg width="30" height="26" viewBox="0 0 30 26" fill="none" xmlns="http://www.w3.org/2000/svg">
<path d="M19.7397 3.75745C19.0122 3.75745 18.3262 4.04362 17.8182 4.54254C17.3102 4.04362 16.6241 3.75745 15.8967 3.75745C14.383 3.75745 13.1515 4.98897 13.1515 6.50268C13.1515 7.89077 13.9347 9.30487 15.4164 10.592C16.502 11.5351 17.575 12.0815 17.6201 12.1043C17.6824 12.1358 17.7503 12.1515 17.8182 12.1515C17.8861 12.1515 17.954 12.1357 18.0163 12.1043C18.0614 12.0815 19.1344 11.5351 20.22 10.592C21.7017 9.30487 22.4849 7.89077 22.4849 6.50268C22.4849 4.98897 21.2534 3.75745 19.7397 3.75745ZM17.8182 11.2117C17.0124 10.7559 14.0304 8.90655 14.0304 6.50268C14.0304 5.4736 14.8677 4.63635 15.8967 4.63635C16.523 4.63635 17.1045 4.94883 17.4521 5.47225C17.5336 5.59489 17.671 5.6686 17.8182 5.6686C17.9654 5.6686 18.1029 5.59489 18.1843 5.47225C18.5319 4.94883 19.1134 4.63635 19.7397 4.63635C20.7688 4.63635 21.6061 5.4736 21.6061 6.50268C21.606 8.90655 18.624 10.7559 17.8182 11.2117Z" fill="#FFBB01"/>
<path d="M26.7424 3.75745H24.3939C24.1512 3.75745 23.9545 3.9542 23.9545 4.1969C23.9545 4.43959 24.1512 4.63635 24.3939 4.63635H26.7424C26.9851 4.63635 27.1819 4.43959 27.1819 4.1969C27.1819 3.9542 26.9851 3.75745 26.7424 3.75745Z" fill="#FFBB01"/>
<path d="M25.803 8.45447H24.3939C24.1512 8.45447 23.9545 8.65123 23.9545 8.89392C23.9545 9.13662 24.1512 9.33337 24.3939 9.33337H25.803C26.0457 9.33337 26.2425 9.13662 26.2425 8.89392C26.2425 8.65123 26.0457 8.45447 25.803 8.45447Z" fill="#FFBB01"/>
<path d="M26.7424 6.10608H24.3939C24.1512 6.10608 23.9545 6.30284 23.9545 6.54553C23.9545 6.78823 24.1512 6.98499 24.3939 6.98499H26.7424C26.9851 6.98499 27.1819 6.78823 27.1819 6.54553C27.1819 6.30284 26.9851 6.10608 26.7424 6.10608Z" fill="#FFBB01"/>
<path d="M8.89405 10.7424C9.13674 10.7424 9.3335 10.5457 9.3335 10.303C9.3335 10.0603 9.13674 9.86353 8.89405 9.86353H7.95485C7.71215 9.86353 7.5154 10.0603 7.5154 10.303C7.5154 10.5457 7.71215 10.7424 7.95485 10.7424H8.89405Z" fill="#FFBB01"/>
<path d="M4.19691 10.7424H6.07578C6.31848 10.7424 6.51523 10.5457 6.51523 10.303C6.51523 10.0603 6.31848 9.86353 6.07578 9.86353H4.19691C3.95422 9.86353 3.75746 10.0603 3.75746 10.303C3.75746 10.5457 3.95422 10.7424 4.19691 10.7424Z" fill="#FFBB01"/>
<path d="M4.19691 13.0911H8.89391C9.1366 13.0911 9.33336 12.8943 9.33336 12.6516C9.33336 12.4089 9.1366 12.2122 8.89391 12.2122H4.19691C3.95422 12.2122 3.75746 12.4089 3.75746 12.6516C3.75746 12.8943 3.95422 13.0911 4.19691 13.0911Z" fill="#FFBB01"/>
<path d="M9.33336 15C9.33336 14.7573 9.1366 14.5605 8.89391 14.5605H4.19691C3.95422 14.5605 3.75746 14.7573 3.75746 15C3.75746 15.2427 3.95422 15.4395 4.19691 15.4395H8.89391C9.1366 15.4395 9.33336 15.2427 9.33336 15Z" fill="#FFBB01"/>
<path d="M7.95473 17.7878H15.4698C15.7125 17.7878 15.9092 17.5911 15.9092 17.3484C15.9092 17.1057 15.7125 16.9089 15.4698 16.9089H7.95473C7.71203 16.9089 7.51527 17.1057 7.51527 17.3484C7.51527 17.5911 7.71203 17.7878 7.95473 17.7878Z" fill="#FFBB01"/>
<path d="M4.19691 16.9089C3.95422 16.9089 3.75746 17.1057 3.75746 17.3484C3.75746 17.5911 3.95422 17.7878 4.19691 17.7878H6.07578C6.31848 17.7878 6.51523 17.5911 6.51523 17.3484C6.51523 17.1057 6.31848 16.9089 6.07578 16.9089H4.19691Z" fill="#FFBB01"/>
<path d="M25.803 10.8031H24.3939C24.1512 10.8031 23.9545 10.9999 23.9545 11.2426C23.9545 11.4852 24.1512 11.682 24.3939 11.682H25.803C26.0457 11.682 26.2425 11.4852 26.2425 11.2426C26.2425 10.9999 26.0457 10.8031 25.803 10.8031Z" fill="#FFBB01"/>
<path d="M28.1515 0H12.1818C11.1625 0 10.3333 0.829219 10.3333 1.84852V13.5909C10.3333 14.6102 11.1625 15.4394 12.1818 15.4394H22.3332L25.6298 18.7361C25.8042 18.9105 26.0356 19.0029 26.2718 19.0029C26.389 19.0029 26.5075 18.9801 26.6206 18.9332C26.9616 18.792 27.1819 18.4623 27.1819 18.0933V15.4395H28.1515C29.1708 15.4395 30 14.6102 30 13.5909V1.84852C30 0.829219 29.1708 0 28.1515 0ZM29.1211 13.5909C29.1211 14.1256 28.6862 14.5605 28.1515 14.5605H26.7425C26.4998 14.5605 26.303 14.7573 26.303 15V18.0933C26.303 18.1037 26.303 18.1135 26.2843 18.1212C26.2656 18.1289 26.2587 18.122 26.2513 18.1147L22.8259 14.6893C22.7435 14.6068 22.6317 14.5605 22.5152 14.5605H12.1818C11.6472 14.5605 11.2122 14.1256 11.2122 13.5909V1.84852C11.2122 1.31385 11.6472 0.878906 12.1818 0.878906H28.1515C28.6861 0.878906 29.1211 1.31385 29.1211 1.84852V13.5909H29.1211Z" fill="#FFBB01"/>
<path d="M19.2273 16.4393C18.9846 16.4393 18.7878 16.6361 18.7878 16.8788V19.697C18.7878 20.2316 18.3529 20.6666 17.8182 20.6666H7.4849C7.36836 20.6666 7.25656 20.7129 7.17418 20.7953L3.74879 24.2207C3.74146 24.2281 3.73443 24.235 3.7158 24.2273C3.69711 24.2196 3.69711 24.2097 3.69711 24.1994V21.1061C3.69711 20.8634 3.50035 20.6666 3.25765 20.6666H1.84853C1.31386 20.6666 0.878922 20.2317 0.878922 19.697V7.95459C0.878922 7.41993 1.31386 6.98499 1.84853 6.98499H8.89408C9.13678 6.98499 9.33353 6.78823 9.33353 6.54553C9.33353 6.30284 9.13678 6.10608 8.89408 6.10608H1.84853C0.829234 6.10608 1.52588e-05 6.9353 1.52588e-05 7.95459V19.697C1.52588e-05 20.7163 0.829234 21.5455 1.84853 21.5455H2.81814V24.1993C2.81814 24.5683 3.03845 24.898 3.37941 25.0392C3.49255 25.0861 3.61097 25.1089 3.72828 25.1089C3.96441 25.1089 4.19586 25.0165 4.37023 24.8422L7.66695 21.5455H17.8183C18.8376 21.5455 19.6668 20.7163 19.6668 19.697V16.8788C19.6667 16.6361 19.47 16.4393 19.2273 16.4393Z" fill="#FFBB01"/>
</svg>
